{"title":"Masala (2013) telugu movie __CZAR__","uid":9238361,"size":787432420,"categoryP":"video","categoryS":"movies_dvdr","magnet":"?xt=urn:btih:e0651928682ab14ea65cca009f7c29669f8a29ff&amp;dn=Masala+%282013%29+telugu+movie+__CZAR__&amp;tr=udp%3A%2F%2Ftracker.openbittorrent.com%3A80&amp;tr=udp%3A%2F%2Fopen.demonii.com%3A1337&amp;tr=udp%3A%2F%2Ftracker.coppersurfer.tk%3A6969&amp;tr=udp%3A%2F%2Fexodus.desync.com%3A6969","seeders":4,"leechers":2,"uploader":"__CZAR__","files":1,"time":1385223926,"description":"General\nUnique ID                                : 56685624858145859640590760956895551792 (0x2AA541156AF839846994D50214CDE130)\nComplete name                            : Masala (2013) Telugu Movie HD DVDScr XviD__CZAR__Masala (2013) Telugu Movie HD DVDScr XviD -__CZAR__.mkv\nFormat                                   : Matroska\nFormat version                           : Version 2\nFile size                                : 751 MiB\nDuration                                 : 2h 20mn\nOverall bit rate                         : 748 Kbps\nWriting application                      : Lavf52.39.1\nWriting library                          : Lavf52.39.1\n\nVideo\nID                                       : 1\nFormat                                   : xvid\nCodec ID                                 : V_MS/VFW/FOURCC / xvid\nDuration                                 : 2h 20mn\nBit rate                                 : 669 Kbps\nWidth                                    : 720 pixels\nHeight                                   : 376 pixels\nDisplay aspect ratio                     : 1.915\nFrame rate mode                          : Constant\nFrame rate                               : 25.000 fps\nBits/(Pixel*Frame)                       : 0.099\nStream size                              : 672 MiB (89%)\nLanguage                                 : English\nDefault                                  : Yes\nForced                                   : No\n\nAudio\nID                                       : 2\nFormat                                   : MPEG Audio\nFormat version                           : Version 1\nFormat profile                           : Layer 3\nMode                                     : Joint stereo\nMode extension                           : MS Stereo\nCodec ID                                 : A_MPEG/L3\nCodec ID/Hint                            : MP3\nDuration                                 : 2h 20mn\nBit rate mode                            : Constant\nBit rate                                 : 64.0 Kbps\nChannel(s)                               : 2 channels\nSampling rate                            : 48.0 KHz\nCompression mode                         : Lossy\nStream size                              : 64.2 MiB (9%)\nLanguage                                 : English\nDefault                                  : Yes\nForced                                   : No\n","torrent":{"xt":"urn:btih:e0651928682ab14ea65cca009f7c29669f8a29ff","amp;dn":"Masala+%282013%29+telugu+movie+__CZAR__","amp;tr":["udp%3A%2F%2Ftracker.openbittorrent.com%3A80","udp%3A%2F%2Fopen.demonii.com%3A1337","udp%3A%2F%2Ftracker.coppersurfer.tk%3A6969","udp%3A%2F%2Fexodus.desync.com%3A6969"],"infoHash":"e0651928682ab14ea65cca009f7c29669f8a29ff","infoHashBuffer":{"type":"Buffer","data":[224,101,25,40,104,42,177,78,166,92,202,0,159,124,41,102,159,138,41,255]},"announce":[],"urlList":[]}}